<?xml version="1.0" encoding="UTF-8" standalone="no"?><svg xmlns="http://www.w3.org/2000/svg" xmlns:xlink="http://www.w3.org/1999/xlink" contentScriptType="application/ecmascript" contentStyleType="text/css" height="112px" preserveAspectRatio="none" style="width:280px;height:112px;" version="1.1" viewBox="0 0 280 112" width="280px" zoomAndPan="magnify"><defs><filter height="300%" id="f2g51o2fs8das" width="300%" x="-1" y="-1"><feGaussianBlur result="blurOut" stdDeviation="2.0"/><feColorMatrix in="blurOut" result="blurOut2" type="matrix" values="0 0 0 0 0 0 0 0 0 0 0 0 0 0 0 0 0 0 .4 0"/><feOffset dx="4.0" dy="4.0" in="blurOut2" result="blurOut3"/><feBlend in="SourceGraphic" in2="blurOut3" mode="normal"/></filter></defs><g><!--class com.hack23.maven.plugin.model.MeasuresContainer--><a href="MeasuresContainer.html" target="_top" xlink:actuate="onRequest" xlink:show="new" xlink:title="MeasuresContainer.html" xlink:type="simple"><rect fill="#FEFECE" filter="url(#f2g51o2fs8das)" height="71.5469" id="com.hack23.maven.plugin.model.MeasuresContainer" style="stroke: #A80036; stroke-width: 1.5;" width="263" x="6" y="8"/><ellipse cx="53.75" cy="26.9688" fill="#ADD1B2" rx="11" ry="11" style="stroke: #A80036; stroke-width: 1.0;"/><path d="M56.7188,32.6094 Q56.1406,32.9063 55.5,33.0469 Q54.8594,33.2031 54.1563,33.2031 Q51.6563,33.2031 50.3281,31.5625 Q49.0156,29.9063 49.0156,26.7813 Q49.0156,23.6563 50.3281,22 Q51.6563,20.3438 54.1563,20.3438 Q54.8594,20.3438 55.5,20.5 Q56.1563,20.6563 56.7188,20.9531 L56.7188,23.6719 Q56.0938,23.0938 55.5,22.8281 Q54.9063,22.5469 54.2813,22.5469 Q52.9375,22.5469 52.25,23.625 Q51.5625,24.6875 51.5625,26.7813 Q51.5625,28.875 52.25,29.9531 Q52.9375,31.0156 54.2813,31.0156 Q54.9063,31.0156 55.5,30.75 Q56.0938,30.4688 56.7188,29.8906 L56.7188,32.6094 Z "/><text fill="#000000" font-family="sans-serif" font-size="14" lengthAdjust="spacingAndGlyphs" textLength="135" x="86.25" y="25.9951">MeasuresContainer</text><text fill="#000000" font-family="sans-serif" font-size="10" lengthAdjust="spacingAndGlyphs" textLength="159" x="74.25" y="38.5791">com.hack23.maven.plugin.model</text><line style="stroke: #A80036; stroke-width: 1.5;" x1="7" x2="268" y1="45.9375" y2="45.9375"/><ellipse cx="17" cy="57.8398" fill="#84BE84" rx="3" ry="3" style="stroke: #038048; stroke-width: 1.0;"/><text fill="#000000" font-family="sans-serif" font-size="11" lengthAdjust="spacingAndGlyphs" textLength="214" x="26" y="60.1479">getMeasures(): ArrayList&lt;Measures&gt;</text><ellipse cx="17" cy="70.6445" fill="#84BE84" rx="3" ry="3" style="stroke: #038048; stroke-width: 1.0;"/><text fill="#000000" font-family="sans-serif" font-size="11" lengthAdjust="spacingAndGlyphs" textLength="237" x="26" y="72.9526">setMeasures(ArrayList&lt;Measures&gt;): void</text></a><text fill="#888888" font-family="sans-serif" font-size="10" lengthAdjust="spacingAndGlyphs" textLength="186" x="50.5" y="99.2822">UMLDoclet 2.0.5, PlantUML 1.2019.08</text><!--
@startuml
    set namespaceSeparator none
    hide empty fields
    hide empty methods

    class "<size:14>MeasuresContainer\n<size:10>com.hack23.maven.plugin.model" as com.hack23.maven.plugin.model.MeasuresContainer [[MeasuresContainer.html]] {
        +getMeasures(): ArrayList<Measures>
        +setMeasures(ArrayList<Measures>): void
    }

    center footer UMLDoclet 2.0.5, PlantUML 1.2019.08
@enduml

PlantUML version 1.2019.08(Sat Jul 13 21:25:14 CEST 2019)
(APACHE source distribution)
Java Runtime: OpenJDK Runtime Environment
JVM: OpenJDK 64-Bit Server VM
Java Version: 11.0.5-ea+6-post-Ubuntu-1ubuntu2
Operating System: Linux
OS Version: 5.3.0-12-generic
Default Encoding: UTF-8
Language: en
Country: US
--></g></svg>