<?xml version="1.0" encoding="UTF-8" standalone="no"?><svg xmlns="http://www.w3.org/2000/svg" xmlns:xlink="http://www.w3.org/1999/xlink" contentScriptType="application/ecmascript" contentStyleType="text/css" height="163px" preserveAspectRatio="none" style="width:288px;height:163px;" version="1.1" viewBox="0 0 288 163" width="288px" zoomAndPan="magnify"><defs><filter height="300%" id="fg4gjmh7255lv" width="300%" x="-1" y="-1"><feGaussianBlur result="blurOut" stdDeviation="2.0"/><feColorMatrix in="blurOut" result="blurOut2" type="matrix" values="0 0 0 0 0 0 0 0 0 0 0 0 0 0 0 0 0 0 .4 0"/><feOffset dx="4.0" dy="4.0" in="blurOut2" result="blurOut3"/><feBlend in="SourceGraphic" in2="blurOut3" mode="normal"/></filter></defs><g><!--class com.hack23.maven.plugin.model.QualityGateValue--><a href="QualityGateValue.html" target="_top" xlink:actuate="onRequest" xlink:show="new" xlink:title="QualityGateValue.html" xlink:type="simple"><rect fill="#FEFECE" filter="url(#fg4gjmh7255lv)" height="122.7656" id="com.hack23.maven.plugin.model.QualityGateValue" style="stroke: #A80036; stroke-width: 1.5;" width="271" x="6" y="8"/><ellipse cx="57.75" cy="26.9688" fill="#ADD1B2" rx="11" ry="11" style="stroke: #A80036; stroke-width: 1.0;"/><path d="M60.7188,32.6094 Q60.1406,32.9063 59.5,33.0469 Q58.8594,33.2031 58.1563,33.2031 Q55.6563,33.2031 54.3281,31.5625 Q53.0156,29.9063 53.0156,26.7813 Q53.0156,23.6563 54.3281,22 Q55.6563,20.3438 58.1563,20.3438 Q58.8594,20.3438 59.5,20.5 Q60.1563,20.6563 60.7188,20.9531 L60.7188,23.6719 Q60.0938,23.0938 59.5,22.8281 Q58.9063,22.5469 58.2813,22.5469 Q56.9375,22.5469 56.25,23.625 Q55.5625,24.6875 55.5625,26.7813 Q55.5625,28.875 56.25,29.9531 Q56.9375,31.0156 58.2813,31.0156 Q58.9063,31.0156 59.5,30.75 Q60.0938,30.4688 60.7188,29.8906 L60.7188,32.6094 Z "/><text fill="#000000" font-family="sans-serif" font-size="14" lengthAdjust="spacingAndGlyphs" textLength="117" x="99.25" y="25.9951">QualityGateValue</text><text fill="#000000" font-family="sans-serif" font-size="10" lengthAdjust="spacingAndGlyphs" textLength="159" x="78.25" y="38.5791">com.hack23.maven.plugin.model</text><line style="stroke: #A80036; stroke-width: 1.5;" x1="7" x2="276" y1="45.9375" y2="45.9375"/><ellipse cx="17" cy="57.8398" fill="#84BE84" rx="3" ry="3" style="stroke: #038048; stroke-width: 1.0;"/><text fill="#000000" font-family="sans-serif" font-size="11" lengthAdjust="spacingAndGlyphs" textLength="171" x="26" y="60.1479">getIgnoredConditions(): String</text><ellipse cx="17" cy="70.6445" fill="#84BE84" rx="3" ry="3" style="stroke: #038048; stroke-width: 1.0;"/><text fill="#000000" font-family="sans-serif" font-size="11" lengthAdjust="spacingAndGlyphs" textLength="194" x="26" y="72.9526">setIgnoredConditions(String): void</text><ellipse cx="17" cy="83.4492" fill="#84BE84" rx="3" ry="3" style="stroke: #038048; stroke-width: 1.0;"/><text fill="#000000" font-family="sans-serif" font-size="11" lengthAdjust="spacingAndGlyphs" textLength="97" x="26" y="85.7573">getLevel(): String</text><ellipse cx="17" cy="96.2539" fill="#84BE84" rx="3" ry="3" style="stroke: #038048; stroke-width: 1.0;"/><text fill="#000000" font-family="sans-serif" font-size="11" lengthAdjust="spacingAndGlyphs" textLength="120" x="26" y="98.562">setLevel(String): void</text><ellipse cx="17" cy="109.0586" fill="#84BE84" rx="3" ry="3" style="stroke: #038048; stroke-width: 1.0;"/><text fill="#000000" font-family="sans-serif" font-size="11" lengthAdjust="spacingAndGlyphs" textLength="222" x="26" y="111.3667">getConditions(): ArrayList&lt;Conditions&gt;</text><ellipse cx="17" cy="121.8633" fill="#84BE84" rx="3" ry="3" style="stroke: #038048; stroke-width: 1.0;"/><text fill="#000000" font-family="sans-serif" font-size="11" lengthAdjust="spacingAndGlyphs" textLength="245" x="26" y="124.1714">setConditions(ArrayList&lt;Conditions&gt;): void</text></a><text fill="#888888" font-family="sans-serif" font-size="10" lengthAdjust="spacingAndGlyphs" textLength="186" x="54.5" y="150.2822">UMLDoclet 2.0.5, PlantUML 1.2019.08</text><!--
@startuml
    set namespaceSeparator none
    hide empty fields
    hide empty methods

    class "<size:14>QualityGateValue\n<size:10>com.hack23.maven.plugin.model" as com.hack23.maven.plugin.model.QualityGateValue [[QualityGateValue.html]] {
        +getIgnoredConditions(): String
        +setIgnoredConditions(String): void
        +getLevel(): String
        +setLevel(String): void
        +getConditions(): ArrayList<Conditions>
        +setConditions(ArrayList<Conditions>): void
    }

    center footer UMLDoclet 2.0.5, PlantUML 1.2019.08
@enduml

PlantUML version 1.2019.08(Sat Jul 13 21:25:14 CEST 2019)
(APACHE source distribution)
Java Runtime: OpenJDK Runtime Environment
JVM: OpenJDK 64-Bit Server VM
Java Version: 11.0.5-ea+6-post-Ubuntu-1ubuntu2
Operating System: Linux
OS Version: 5.3.0-12-generic
Default Encoding: UTF-8
Language: en
Country: US
--></g></svg>