<?xml version="1.0" encoding="UTF-8" standalone="no"?><svg xmlns="http://www.w3.org/2000/svg" xmlns:xlink="http://www.w3.org/1999/xlink" contentScriptType="application/ecmascript" contentStyleType="text/css" height="108px" preserveAspectRatio="none" style="width:251px;height:108px;" version="1.1" viewBox="0 0 251 108" width="251px" zoomAndPan="magnify"><defs><filter height="300%" id="fcwq4mu2t8xll" width="300%" x="-1" y="-1"><feGaussianBlur result="blurOut" stdDeviation="2.0"/><feColorMatrix in="blurOut" result="blurOut2" type="matrix" values="0 0 0 0 0 0 0 0 0 0 0 0 0 0 0 0 0 0 .4 0"/><feOffset dx="4.0" dy="4.0" in="blurOut2" result="blurOut3"/><feBlend in="SourceGraphic" in2="blurOut3" mode="normal"/></filter></defs><g><!--MD5=[f9ae83a406b1ed8a229b19e349459480]
class com.hack23.maven.plugin.model.MeasuresContainer--><a href="MeasuresContainer.html" target="_top" title="MeasuresContainer.html" xlink:actuate="onRequest" xlink:href="MeasuresContainer.html" xlink:show="new" xlink:title="MeasuresContainer.html" xlink:type="simple"><rect fill="#FEFECE" filter="url(#fcwq4mu2t8xll)" height="71.5469" id="com.hack23.maven.plugin.model.MeasuresContainer" style="stroke: #A80036; stroke-width: 1.5;" width="233" x="7" y="7"/><ellipse cx="40.9" cy="25.9688" fill="#ADD1B2" rx="11" ry="11" style="stroke: #A80036; stroke-width: 1.0;"/><path d="M43.8688,31.6094 Q43.2906,31.9063 42.65,32.0469 Q42.0094,32.2031 41.3063,32.2031 Q38.8063,32.2031 37.4781,30.5625 Q36.1656,28.9063 36.1656,25.7813 Q36.1656,22.6563 37.4781,21 Q38.8063,19.3438 41.3063,19.3438 Q42.0094,19.3438 42.65,19.5 Q43.3063,19.6563 43.8688,19.9531 L43.8688,22.6719 Q43.2438,22.0938 42.65,21.8281 Q42.0563,21.5469 41.4313,21.5469 Q40.0875,21.5469 39.4,22.625 Q38.7125,23.6875 38.7125,25.7813 Q38.7125,27.875 39.4,28.9531 Q40.0875,30.0156 41.4313,30.0156 Q42.0563,30.0156 42.65,29.75 Q43.2438,29.4688 43.8688,28.8906 L43.8688,31.6094 Z "/><text fill="#000000" font-family="sans-serif" font-size="14" lengthAdjust="spacingAndGlyphs" textLength="135" x="71.1" y="24.9951">MeasuresContainer</text><text fill="#000000" font-family="sans-serif" font-size="10" lengthAdjust="spacingAndGlyphs" textLength="159" x="59.1" y="37.5791">com.hack23.maven.plugin.model</text><line style="stroke: #A80036; stroke-width: 1.5;" x1="8" x2="239" y1="44.9375" y2="44.9375"/><ellipse cx="18" cy="55.9375" fill="#84BE84" rx="3" ry="3" style="stroke: #038048; stroke-width: 1.0;"/><text fill="#000000" font-family="sans-serif" font-size="11" lengthAdjust="spacingAndGlyphs" textLength="184" x="27" y="59.1479">getMeasures(): List&lt;Measures&gt;</text><ellipse cx="18" cy="68.7422" fill="#84BE84" rx="3" ry="3" style="stroke: #038048; stroke-width: 1.0;"/><text fill="#000000" font-family="sans-serif" font-size="11" lengthAdjust="spacingAndGlyphs" textLength="207" x="27" y="71.9526">setMeasures(List&lt;Measures&gt;): void</text></a><text fill="#888888" font-family="sans-serif" font-size="10" lengthAdjust="spacingAndGlyphs" textLength="186" x="30.5" y="94.8291">UMLDoclet 2.0.7, PlantUML 1.2019.12</text><!--MD5=[a52e769dc9e538455d53cbf7814cfdf3]
@startuml
    set namespaceSeparator none
    hide empty fields
    hide empty methods

    class "<size:14>MeasuresContainer\n<size:10>com.hack23.maven.plugin.model" as com.hack23.maven.plugin.model.MeasuresContainer [[MeasuresContainer.html]] {
        +getMeasures(): List<Measures>
        +setMeasures(List<Measures>): void
    }

    center footer UMLDoclet 2.0.7, PlantUML 1.2019.12
@enduml

PlantUML version 1.2019.12(Sun Nov 03 11:24:54 CET 2019)
(APACHE source distribution)
Java Runtime: OpenJDK Runtime Environment
JVM: OpenJDK 64-Bit Server VM
Java Version: 11.0.5+10-post-Ubuntu-0ubuntu1.1
Operating System: Linux
Default Encoding: UTF-8
Language: en
Country: US
--></g></svg>