<?xml version="1.0" encoding="UTF-8" standalone="no"?><svg xmlns="http://www.w3.org/2000/svg" xmlns:xlink="http://www.w3.org/1999/xlink" contentScriptType="application/ecmascript" contentStyleType="text/css" height="531px" preserveAspectRatio="none" style="width:461px;height:531px;" version="1.1" viewBox="0 0 461 531" width="461px" zoomAndPan="magnify"><defs><filter height="300%" id="f1uu14fzlf2nds" width="300%" x="-1" y="-1"><feGaussianBlur result="blurOut" stdDeviation="2.0"/><feColorMatrix in="blurOut" result="blurOut2" type="matrix" values="0 0 0 0 0 0 0 0 0 0 0 0 0 0 0 0 0 0 .4 0"/><feOffset dx="4.0" dy="4.0" in="blurOut2" result="blurOut3"/><feBlend in="SourceGraphic" in2="blurOut3" mode="normal"/></filter></defs><g><!--MD5=[e32232b0832f256e323a955122872e51]
cluster com.hack23.maven.plugin.model--><polygon fill="#FFFFFF" filter="url(#f1uu14fzlf2nds)" points="14,16,278,16,285,38.2969,439,38.2969,439,491,14,491,14,16" style="stroke: #000000; stroke-width: 1.5;"/><line style="stroke: #000000; stroke-width: 1.5;" x1="14" x2="285" y1="38.2969" y2="38.2969"/><text fill="#000000" font-family="sans-serif" font-size="14" font-weight="bold" lengthAdjust="spacingAndGlyphs" textLength="258" x="18" y="30.9951">com.hack23.maven.plugin.model</text><!--MD5=[4856762ba7740a46e785382d98bb7c2f]
class com.hack23.maven.plugin.model.Conditions--><a href="Conditions.html" target="_top" title="Conditions.html" xlink:actuate="onRequest" xlink:href="Conditions.html" xlink:show="new" xlink:title="Conditions.html" xlink:type="simple"><rect fill="#FEFECE" filter="url(#f1uu14fzlf2nds)" height="201.6563" id="com.hack23.maven.plugin.model.Conditions" style="stroke: #A80036; stroke-width: 1.5;" width="153" x="244.5" y="281"/><ellipse cx="284.25" cy="297" fill="#ADD1B2" rx="11" ry="11" style="stroke: #A80036; stroke-width: 1.0;"/><path d="M287.2188,302.6406 Q286.6406,302.9375 286,303.0781 Q285.3594,303.2344 284.6563,303.2344 Q282.1563,303.2344 280.8281,301.5938 Q279.5156,299.9375 279.5156,296.8125 Q279.5156,293.6875 280.8281,292.0313 Q282.1563,290.375 284.6563,290.375 Q285.3594,290.375 286,290.5313 Q286.6563,290.6875 287.2188,290.9844 L287.2188,293.7031 Q286.5938,293.125 286,292.8594 Q285.4063,292.5781 284.7813,292.5781 Q283.4375,292.5781 282.75,293.6563 Q282.0625,294.7188 282.0625,296.8125 Q282.0625,298.9063 282.75,299.9844 Q283.4375,301.0469 284.7813,301.0469 Q285.4063,301.0469 286,300.7813 Q286.5938,300.5 287.2188,299.9219 L287.2188,302.6406 Z "/><text fill="#000000" font-family="sans-serif" font-size="12" lengthAdjust="spacingAndGlyphs" textLength="66" x="303.75" y="301.1543">Conditions</text><line style="stroke: #A80036; stroke-width: 1.5;" x1="245.5" x2="396.5" y1="313" y2="313"/><line style="stroke: #A80036; stroke-width: 1.5;" x1="245.5" x2="396.5" y1="321" y2="321"/><ellipse cx="255.5" cy="332" fill="#84BE84" rx="3" ry="3" style="stroke: #038048; stroke-width: 1.0;"/><text fill="#000000" font-family="sans-serif" font-size="11" lengthAdjust="spacingAndGlyphs" textLength="102" x="264.5" y="335.2104">getActual(): String</text><ellipse cx="255.5" cy="344.8047" fill="#84BE84" rx="3" ry="3" style="stroke: #038048; stroke-width: 1.0;"/><text fill="#000000" font-family="sans-serif" font-size="11" lengthAdjust="spacingAndGlyphs" textLength="125" x="264.5" y="348.0151">setActual(String): void</text><ellipse cx="255.5" cy="357.6094" fill="#84BE84" rx="3" ry="3" style="stroke: #038048; stroke-width: 1.0;"/><text fill="#000000" font-family="sans-serif" font-size="11" lengthAdjust="spacingAndGlyphs" textLength="84" x="264.5" y="360.8198">getOp(): String</text><ellipse cx="255.5" cy="370.4141" fill="#84BE84" rx="3" ry="3" style="stroke: #038048; stroke-width: 1.0;"/><text fill="#000000" font-family="sans-serif" font-size="11" lengthAdjust="spacingAndGlyphs" textLength="107" x="264.5" y="373.6245">setOp(String): void</text><ellipse cx="255.5" cy="383.2188" fill="#84BE84" rx="3" ry="3" style="stroke: #038048; stroke-width: 1.0;"/><text fill="#000000" font-family="sans-serif" font-size="11" lengthAdjust="spacingAndGlyphs" textLength="104" x="264.5" y="386.4292">getPeriod(): String</text><ellipse cx="255.5" cy="396.0234" fill="#84BE84" rx="3" ry="3" style="stroke: #038048; stroke-width: 1.0;"/><text fill="#000000" font-family="sans-serif" font-size="11" lengthAdjust="spacingAndGlyphs" textLength="127" x="264.5" y="399.2339">setPeriod(String): void</text><ellipse cx="255.5" cy="408.8281" fill="#84BE84" rx="3" ry="3" style="stroke: #038048; stroke-width: 1.0;"/><text fill="#000000" font-family="sans-serif" font-size="11" lengthAdjust="spacingAndGlyphs" textLength="102" x="264.5" y="412.0386">getMetric(): String</text><ellipse cx="255.5" cy="421.6328" fill="#84BE84" rx="3" ry="3" style="stroke: #038048; stroke-width: 1.0;"/><text fill="#000000" font-family="sans-serif" font-size="11" lengthAdjust="spacingAndGlyphs" textLength="125" x="264.5" y="424.8433">setMetric(String): void</text><ellipse cx="255.5" cy="434.4375" fill="#84BE84" rx="3" ry="3" style="stroke: #038048; stroke-width: 1.0;"/><text fill="#000000" font-family="sans-serif" font-size="11" lengthAdjust="spacingAndGlyphs" textLength="97" x="264.5" y="437.6479">getLevel(): String</text><ellipse cx="255.5" cy="447.2422" fill="#84BE84" rx="3" ry="3" style="stroke: #038048; stroke-width: 1.0;"/><text fill="#000000" font-family="sans-serif" font-size="11" lengthAdjust="spacingAndGlyphs" textLength="120" x="264.5" y="450.4526">setLevel(String): void</text><ellipse cx="255.5" cy="460.0469" fill="#84BE84" rx="3" ry="3" style="stroke: #038048; stroke-width: 1.0;"/><text fill="#000000" font-family="sans-serif" font-size="11" lengthAdjust="spacingAndGlyphs" textLength="97" x="264.5" y="463.2573">getError(): String</text><ellipse cx="255.5" cy="472.8516" fill="#84BE84" rx="3" ry="3" style="stroke: #038048; stroke-width: 1.0;"/><text fill="#000000" font-family="sans-serif" font-size="11" lengthAdjust="spacingAndGlyphs" textLength="120" x="264.5" y="476.062">setError(String): void</text></a><!--MD5=[a0ec6ba8e12c5549fb4b9479c5866cc9]
class com.hack23.maven.plugin.model.QualityGateValue--><a href="QualityGateValue.html" target="_top" title="QualityGateValue.html" xlink:actuate="onRequest" xlink:href="QualityGateValue.html" xlink:show="new" xlink:title="QualityGateValue.html" xlink:type="simple"><rect fill="#FEFECE" filter="url(#f1uu14fzlf2nds)" height="99.2188" id="com.hack23.maven.plugin.model.QualityGateValue" style="stroke: #A80036; stroke-width: 1.5;" width="220" x="211" y="43"/><ellipse cx="263.25" cy="59" fill="#ADD1B2" rx="11" ry="11" style="stroke: #A80036; stroke-width: 1.0;"/><path d="M266.2188,64.6406 Q265.6406,64.9375 265,65.0781 Q264.3594,65.2344 263.6563,65.2344 Q261.1563,65.2344 259.8281,63.5938 Q258.5156,61.9375 258.5156,58.8125 Q258.5156,55.6875 259.8281,54.0313 Q261.1563,52.375 263.6563,52.375 Q264.3594,52.375 265,52.5313 Q265.6563,52.6875 266.2188,52.9844 L266.2188,55.7031 Q265.5938,55.125 265,54.8594 Q264.4063,54.5781 263.7813,54.5781 Q262.4375,54.5781 261.75,55.6563 Q261.0625,56.7188 261.0625,58.8125 Q261.0625,60.9063 261.75,61.9844 Q262.4375,63.0469 263.7813,63.0469 Q264.4063,63.0469 265,62.7813 Q265.5938,62.5 266.2188,61.9219 L266.2188,64.6406 Z "/><text fill="#000000" font-family="sans-serif" font-size="12" lengthAdjust="spacingAndGlyphs" textLength="107" x="283.75" y="63.1543">QualityGateValue</text><line style="stroke: #A80036; stroke-width: 1.5;" x1="212" x2="430" y1="75" y2="75"/><line style="stroke: #A80036; stroke-width: 1.5;" x1="212" x2="430" y1="83" y2="83"/><ellipse cx="222" cy="94" fill="#84BE84" rx="3" ry="3" style="stroke: #038048; stroke-width: 1.0;"/><text fill="#000000" font-family="sans-serif" font-size="11" lengthAdjust="spacingAndGlyphs" textLength="171" x="231" y="97.2104">getIgnoredConditions(): String</text><ellipse cx="222" cy="106.8047" fill="#84BE84" rx="3" ry="3" style="stroke: #038048; stroke-width: 1.0;"/><text fill="#000000" font-family="sans-serif" font-size="11" lengthAdjust="spacingAndGlyphs" textLength="194" x="231" y="110.0151">setIgnoredConditions(String): void</text><ellipse cx="222" cy="119.6094" fill="#84BE84" rx="3" ry="3" style="stroke: #038048; stroke-width: 1.0;"/><text fill="#000000" font-family="sans-serif" font-size="11" lengthAdjust="spacingAndGlyphs" textLength="97" x="231" y="122.8198">getLevel(): String</text><ellipse cx="222" cy="132.4141" fill="#84BE84" rx="3" ry="3" style="stroke: #038048; stroke-width: 1.0;"/><text fill="#000000" font-family="sans-serif" font-size="11" lengthAdjust="spacingAndGlyphs" textLength="120" x="231" y="135.6245">setLevel(String): void</text></a><!--MD5=[d69ed44e9fef62a87cc1e0466b4336ba]
class com.hack23.maven.plugin.model.Measures--><a href="Measures.html" target="_top" title="Measures.html" xlink:actuate="onRequest" xlink:href="Measures.html" xlink:show="new" xlink:title="Measures.html" xlink:type="simple"><rect fill="#FEFECE" filter="url(#f1uu14fzlf2nds)" height="124.8281" id="com.hack23.maven.plugin.model.Measures" style="stroke: #A80036; stroke-width: 1.5;" width="182" x="22" y="319.5"/><ellipse cx="78.25" cy="335.5" fill="#ADD1B2" rx="11" ry="11" style="stroke: #A80036; stroke-width: 1.0;"/><path d="M81.2188,341.1406 Q80.6406,341.4375 80,341.5781 Q79.3594,341.7344 78.6563,341.7344 Q76.1563,341.7344 74.8281,340.0938 Q73.5156,338.4375 73.5156,335.3125 Q73.5156,332.1875 74.8281,330.5313 Q76.1563,328.875 78.6563,328.875 Q79.3594,328.875 80,329.0313 Q80.6563,329.1875 81.2188,329.4844 L81.2188,332.2031 Q80.5938,331.625 80,331.3594 Q79.4063,331.0781 78.7813,331.0781 Q77.4375,331.0781 76.75,332.1563 Q76.0625,333.2188 76.0625,335.3125 Q76.0625,337.4063 76.75,338.4844 Q77.4375,339.5469 78.7813,339.5469 Q79.4063,339.5469 80,339.2813 Q80.5938,339 81.2188,338.4219 L81.2188,341.1406 Z "/><text fill="#000000" font-family="sans-serif" font-size="12" lengthAdjust="spacingAndGlyphs" textLength="61" x="98.75" y="339.6543">Measures</text><line style="stroke: #A80036; stroke-width: 1.5;" x1="23" x2="203" y1="351.5" y2="351.5"/><line style="stroke: #A80036; stroke-width: 1.5;" x1="23" x2="203" y1="359.5" y2="359.5"/><ellipse cx="33" cy="370.5" fill="#84BE84" rx="3" ry="3" style="stroke: #038048; stroke-width: 1.0;"/><text fill="#000000" font-family="sans-serif" font-size="11" lengthAdjust="spacingAndGlyphs" textLength="133" x="42" y="373.7104">getComponent(): String</text><ellipse cx="33" cy="383.3047" fill="#84BE84" rx="3" ry="3" style="stroke: #038048; stroke-width: 1.0;"/><text fill="#000000" font-family="sans-serif" font-size="11" lengthAdjust="spacingAndGlyphs" textLength="156" x="42" y="386.5151">setComponent(String): void</text><ellipse cx="33" cy="396.1094" fill="#84BE84" rx="3" ry="3" style="stroke: #038048; stroke-width: 1.0;"/><text fill="#000000" font-family="sans-serif" font-size="11" lengthAdjust="spacingAndGlyphs" textLength="102" x="42" y="399.3198">getMetric(): String</text><ellipse cx="33" cy="408.9141" fill="#84BE84" rx="3" ry="3" style="stroke: #038048; stroke-width: 1.0;"/><text fill="#000000" font-family="sans-serif" font-size="11" lengthAdjust="spacingAndGlyphs" textLength="125" x="42" y="412.1245">setMetric(String): void</text><ellipse cx="33" cy="421.7188" fill="#84BE84" rx="3" ry="3" style="stroke: #038048; stroke-width: 1.0;"/><text fill="#000000" font-family="sans-serif" font-size="11" lengthAdjust="spacingAndGlyphs" textLength="99" x="42" y="424.9292">getValue(): String</text><ellipse cx="33" cy="434.5234" fill="#84BE84" rx="3" ry="3" style="stroke: #038048; stroke-width: 1.0;"/><text fill="#000000" font-family="sans-serif" font-size="11" lengthAdjust="spacingAndGlyphs" textLength="122" x="42" y="437.7339">setValue(String): void</text></a><!--MD5=[f9ae83a406b1ed8a229b19e349459480]
class com.hack23.maven.plugin.model.MeasuresContainer--><a href="MeasuresContainer.html" target="_top" title="MeasuresContainer.html" xlink:actuate="onRequest" xlink:href="MeasuresContainer.html" xlink:show="new" xlink:title="MeasuresContainer.html" xlink:type="simple"><rect fill="#FEFECE" filter="url(#f1uu14fzlf2nds)" height="48" id="com.hack23.maven.plugin.model.MeasuresContainer" style="stroke: #A80036; stroke-width: 1.5;" width="154" x="22" y="68.5"/><ellipse cx="37" cy="84.5" fill="#ADD1B2" rx="11" ry="11" style="stroke: #A80036; stroke-width: 1.0;"/><path d="M39.9688,90.1406 Q39.3906,90.4375 38.75,90.5781 Q38.1094,90.7344 37.4063,90.7344 Q34.9063,90.7344 33.5781,89.0938 Q32.2656,87.4375 32.2656,84.3125 Q32.2656,81.1875 33.5781,79.5313 Q34.9063,77.875 37.4063,77.875 Q38.1094,77.875 38.75,78.0313 Q39.4063,78.1875 39.9688,78.4844 L39.9688,81.2031 Q39.3438,80.625 38.75,80.3594 Q38.1563,80.0781 37.5313,80.0781 Q36.1875,80.0781 35.5,81.1563 Q34.8125,82.2188 34.8125,84.3125 Q34.8125,86.4063 35.5,87.4844 Q36.1875,88.5469 37.5313,88.5469 Q38.1563,88.5469 38.75,88.2813 Q39.3438,88 39.9688,87.4219 L39.9688,90.1406 Z "/><text fill="#000000" font-family="sans-serif" font-size="12" lengthAdjust="spacingAndGlyphs" textLength="122" x="51" y="88.6543">MeasuresContainer</text><line style="stroke: #A80036; stroke-width: 1.5;" x1="23" x2="175" y1="100.5" y2="100.5"/><line style="stroke: #A80036; stroke-width: 1.5;" x1="23" x2="175" y1="108.5" y2="108.5"/></a><!--MD5=[1425c7766ab54a75ba7870c6b7e92274]
link com.hack23.maven.plugin.model.QualityGateValue to com.hack23.maven.plugin.model.Conditions--><path d="M321,142.2668 C321,178.8482 321,229.9202 321,275.5293 " fill="none" id="com.hack23.maven.plugin.model.QualityGateValue-&gt;com.hack23.maven.plugin.model.Conditions" style="stroke: #A80036; stroke-width: 1.0;"/><polygon fill="#A80036" points="321,280.7771,325,271.7771,321,275.7771,317,271.7771,321,280.7771" style="stroke: #A80036; stroke-width: 1.0;"/><text fill="#000000" font-family="sans-serif" font-size="13" lengthAdjust="spacingAndGlyphs" textLength="65" x="322" y="216.0669">conditions</text><text fill="#000000" font-family="sans-serif" font-size="13" lengthAdjust="spacingAndGlyphs" textLength="7" x="313.743" y="269.8772">*</text><!--MD5=[93794ee4b284d32edbe04d249627a084]
link com.hack23.maven.plugin.model.MeasuresContainer to com.hack23.maven.plugin.model.Measures--><path d="M100.1696,116.6847 C102.247,159.643 106.65,250.6921 109.7151,314.0732 " fill="none" id="com.hack23.maven.plugin.model.MeasuresContainer-&gt;com.hack23.maven.plugin.model.Measures" style="stroke: #A80036; stroke-width: 1.0;"/><polygon fill="#A80036" points="109.9704,319.3514,113.5306,310.1686,109.7287,314.3572,105.54,310.5553,109.9704,319.3514" style="stroke: #A80036; stroke-width: 1.0;"/><text fill="#000000" font-family="sans-serif" font-size="13" lengthAdjust="spacingAndGlyphs" textLength="64" x="106" y="216.0669">measures</text><text fill="#000000" font-family="sans-serif" font-size="13" lengthAdjust="spacingAndGlyphs" textLength="7" x="102.2154" y="308.325">*</text><text fill="#888888" font-family="sans-serif" font-size="10" lengthAdjust="spacingAndGlyphs" textLength="186" x="139.5" y="518.2822">UMLDoclet 2.0.7, PlantUML 1.2019.12</text><!--MD5=[5c8523694cc6028865a7e589e841987e]
@startuml
    namespace com.hack23.maven.plugin.model {

        class Conditions [[Conditions.html]] {
            +getActual(): String
            +setActual(String): void
            +getOp(): String
            +setOp(String): void
            +getPeriod(): String
            +setPeriod(String): void
            +getMetric(): String
            +setMetric(String): void
            +getLevel(): String
            +setLevel(String): void
            +getError(): String
            +setError(String): void
        }

        class QualityGateValue [[QualityGateValue.html]] {
            +getIgnoredConditions(): String
            +setIgnoredConditions(String): void
            +getLevel(): String
            +setLevel(String): void
        }

        class Measures [[Measures.html]] {
            +getComponent(): String
            +setComponent(String): void
            +getMetric(): String
            +setMetric(String): void
            +getValue(): String
            +setValue(String): void
        }

        class MeasuresContainer [[MeasuresContainer.html]] {
        }

        QualityGateValue - -> "*" Conditions: conditions
        MeasuresContainer - -> "*" Measures: measures
    }

    center footer UMLDoclet 2.0.7, PlantUML 1.2019.12
@enduml

PlantUML version 1.2019.12(Sun Nov 03 11:24:54 CET 2019)
(APACHE source distribution)
Java Runtime: OpenJDK Runtime Environment
JVM: OpenJDK 64-Bit Server VM
Java Version: 11.0.5-ea+10-post-Ubuntu-0ubuntu1
Operating System: Linux
Default Encoding: UTF-8
Language: en
Country: US
--></g></svg>