<?xml version="1.0" encoding="UTF-8" standalone="no"?><svg xmlns="http://www.w3.org/2000/svg" xmlns:xlink="http://www.w3.org/1999/xlink" contentScriptType="application/ecmascript" contentStyleType="text/css" height="501px" preserveAspectRatio="none" style="width:485px;height:501px;" version="1.1" viewBox="0 0 485 501" width="485px" zoomAndPan="magnify"><defs><filter height="300%" id="f9vzvd1ei6zrf" width="300%" x="-1" y="-1"><feGaussianBlur result="blurOut" stdDeviation="2.0"/><feColorMatrix in="blurOut" result="blurOut2" type="matrix" values="0 0 0 0 0 0 0 0 0 0 0 0 0 0 0 0 0 0 .4 0"/><feOffset dx="4.0" dy="4.0" in="blurOut2" result="blurOut3"/><feBlend in="SourceGraphic" in2="blurOut3" mode="normal"/></filter></defs><g><!--MD5=[e32232b0832f256e323a955122872e51]
cluster com.hack23.maven.plugin.model--><polygon fill="#FFFFFF" filter="url(#f9vzvd1ei6zrf)" points="22,24,286,24,293,46.2969,463,46.2969,463,453,22,453,22,24" style="stroke: #000000; stroke-width: 1.5;"/><line style="stroke: #000000; stroke-width: 1.5;" x1="22" x2="293" y1="46.2969" y2="46.2969"/><text fill="#000000" font-family="sans-serif" font-size="14" font-weight="bold" lengthAdjust="spacingAndGlyphs" textLength="258" x="26" y="38.9951">com.hack23.maven.plugin.model</text><!--MD5=[4856762ba7740a46e785382d98bb7c2f]
class com.hack23.maven.plugin.model.Conditions--><a href="Conditions.html" target="_top" title="Conditions.html" xlink:actuate="onRequest" xlink:href="Conditions.html" xlink:show="new" xlink:title="Conditions.html" xlink:type="simple"><rect fill="#FEFECE" filter="url(#f9vzvd1ei6zrf)" height="201.6563" id="com.hack23.maven.plugin.model.Conditions" style="stroke: #A80036; stroke-width: 1.5;" width="153" x="260.5" y="235"/><ellipse cx="300.25" cy="251" fill="#ADD1B2" rx="11" ry="11" style="stroke: #A80036; stroke-width: 1.0;"/><path d="M303.2188,256.6406 Q302.6406,256.9375 302,257.0781 Q301.3594,257.2344 300.6563,257.2344 Q298.1563,257.2344 296.8281,255.5938 Q295.5156,253.9375 295.5156,250.8125 Q295.5156,247.6875 296.8281,246.0313 Q298.1563,244.375 300.6563,244.375 Q301.3594,244.375 302,244.5313 Q302.6563,244.6875 303.2188,244.9844 L303.2188,247.7031 Q302.5938,247.125 302,246.8594 Q301.4063,246.5781 300.7813,246.5781 Q299.4375,246.5781 298.75,247.6563 Q298.0625,248.7188 298.0625,250.8125 Q298.0625,252.9063 298.75,253.9844 Q299.4375,255.0469 300.7813,255.0469 Q301.4063,255.0469 302,254.7813 Q302.5938,254.5 303.2188,253.9219 L303.2188,256.6406 Z "/><text fill="#000000" font-family="sans-serif" font-size="12" lengthAdjust="spacingAndGlyphs" textLength="66" x="319.75" y="255.1543">Conditions</text><line style="stroke: #A80036; stroke-width: 1.5;" x1="261.5" x2="412.5" y1="267" y2="267"/><line style="stroke: #A80036; stroke-width: 1.5;" x1="261.5" x2="412.5" y1="275" y2="275"/><ellipse cx="271.5" cy="286" fill="#84BE84" rx="3" ry="3" style="stroke: #038048; stroke-width: 1.0;"/><text fill="#000000" font-family="sans-serif" font-size="11" lengthAdjust="spacingAndGlyphs" textLength="102" x="280.5" y="289.2104">getActual(): String</text><ellipse cx="271.5" cy="298.8047" fill="#84BE84" rx="3" ry="3" style="stroke: #038048; stroke-width: 1.0;"/><text fill="#000000" font-family="sans-serif" font-size="11" lengthAdjust="spacingAndGlyphs" textLength="125" x="280.5" y="302.0151">setActual(String): void</text><ellipse cx="271.5" cy="311.6094" fill="#84BE84" rx="3" ry="3" style="stroke: #038048; stroke-width: 1.0;"/><text fill="#000000" font-family="sans-serif" font-size="11" lengthAdjust="spacingAndGlyphs" textLength="84" x="280.5" y="314.8198">getOp(): String</text><ellipse cx="271.5" cy="324.4141" fill="#84BE84" rx="3" ry="3" style="stroke: #038048; stroke-width: 1.0;"/><text fill="#000000" font-family="sans-serif" font-size="11" lengthAdjust="spacingAndGlyphs" textLength="107" x="280.5" y="327.6245">setOp(String): void</text><ellipse cx="271.5" cy="337.2188" fill="#84BE84" rx="3" ry="3" style="stroke: #038048; stroke-width: 1.0;"/><text fill="#000000" font-family="sans-serif" font-size="11" lengthAdjust="spacingAndGlyphs" textLength="104" x="280.5" y="340.4292">getPeriod(): String</text><ellipse cx="271.5" cy="350.0234" fill="#84BE84" rx="3" ry="3" style="stroke: #038048; stroke-width: 1.0;"/><text fill="#000000" font-family="sans-serif" font-size="11" lengthAdjust="spacingAndGlyphs" textLength="127" x="280.5" y="353.2339">setPeriod(String): void</text><ellipse cx="271.5" cy="362.8281" fill="#84BE84" rx="3" ry="3" style="stroke: #038048; stroke-width: 1.0;"/><text fill="#000000" font-family="sans-serif" font-size="11" lengthAdjust="spacingAndGlyphs" textLength="102" x="280.5" y="366.0386">getMetric(): String</text><ellipse cx="271.5" cy="375.6328" fill="#84BE84" rx="3" ry="3" style="stroke: #038048; stroke-width: 1.0;"/><text fill="#000000" font-family="sans-serif" font-size="11" lengthAdjust="spacingAndGlyphs" textLength="125" x="280.5" y="378.8433">setMetric(String): void</text><ellipse cx="271.5" cy="388.4375" fill="#84BE84" rx="3" ry="3" style="stroke: #038048; stroke-width: 1.0;"/><text fill="#000000" font-family="sans-serif" font-size="11" lengthAdjust="spacingAndGlyphs" textLength="97" x="280.5" y="391.6479">getLevel(): String</text><ellipse cx="271.5" cy="401.2422" fill="#84BE84" rx="3" ry="3" style="stroke: #038048; stroke-width: 1.0;"/><text fill="#000000" font-family="sans-serif" font-size="11" lengthAdjust="spacingAndGlyphs" textLength="120" x="280.5" y="404.4526">setLevel(String): void</text><ellipse cx="271.5" cy="414.0469" fill="#84BE84" rx="3" ry="3" style="stroke: #038048; stroke-width: 1.0;"/><text fill="#000000" font-family="sans-serif" font-size="11" lengthAdjust="spacingAndGlyphs" textLength="97" x="280.5" y="417.2573">getError(): String</text><ellipse cx="271.5" cy="426.8516" fill="#84BE84" rx="3" ry="3" style="stroke: #038048; stroke-width: 1.0;"/><text fill="#000000" font-family="sans-serif" font-size="11" lengthAdjust="spacingAndGlyphs" textLength="120" x="280.5" y="430.062">setError(String): void</text></a><!--MD5=[a0ec6ba8e12c5549fb4b9479c5866cc9]
class com.hack23.maven.plugin.model.QualityGateValue--><a href="QualityGateValue.html" target="_top" title="QualityGateValue.html" xlink:actuate="onRequest" xlink:href="QualityGateValue.html" xlink:show="new" xlink:title="QualityGateValue.html" xlink:type="simple"><rect fill="#FEFECE" filter="url(#f9vzvd1ei6zrf)" height="99.2188" id="com.hack23.maven.plugin.model.QualityGateValue" style="stroke: #A80036; stroke-width: 1.5;" width="220" x="227" y="59"/><ellipse cx="279.25" cy="75" fill="#ADD1B2" rx="11" ry="11" style="stroke: #A80036; stroke-width: 1.0;"/><path d="M282.2188,80.6406 Q281.6406,80.9375 281,81.0781 Q280.3594,81.2344 279.6563,81.2344 Q277.1563,81.2344 275.8281,79.5938 Q274.5156,77.9375 274.5156,74.8125 Q274.5156,71.6875 275.8281,70.0313 Q277.1563,68.375 279.6563,68.375 Q280.3594,68.375 281,68.5313 Q281.6563,68.6875 282.2188,68.9844 L282.2188,71.7031 Q281.5938,71.125 281,70.8594 Q280.4063,70.5781 279.7813,70.5781 Q278.4375,70.5781 277.75,71.6563 Q277.0625,72.7188 277.0625,74.8125 Q277.0625,76.9063 277.75,77.9844 Q278.4375,79.0469 279.7813,79.0469 Q280.4063,79.0469 281,78.7813 Q281.5938,78.5 282.2188,77.9219 L282.2188,80.6406 Z "/><text fill="#000000" font-family="sans-serif" font-size="12" lengthAdjust="spacingAndGlyphs" textLength="107" x="299.75" y="79.1543">QualityGateValue</text><line style="stroke: #A80036; stroke-width: 1.5;" x1="228" x2="446" y1="91" y2="91"/><line style="stroke: #A80036; stroke-width: 1.5;" x1="228" x2="446" y1="99" y2="99"/><ellipse cx="238" cy="110" fill="#84BE84" rx="3" ry="3" style="stroke: #038048; stroke-width: 1.0;"/><text fill="#000000" font-family="sans-serif" font-size="11" lengthAdjust="spacingAndGlyphs" textLength="171" x="247" y="113.2104">getIgnoredConditions(): String</text><ellipse cx="238" cy="122.8047" fill="#84BE84" rx="3" ry="3" style="stroke: #038048; stroke-width: 1.0;"/><text fill="#000000" font-family="sans-serif" font-size="11" lengthAdjust="spacingAndGlyphs" textLength="194" x="247" y="126.0151">setIgnoredConditions(String): void</text><ellipse cx="238" cy="135.6094" fill="#84BE84" rx="3" ry="3" style="stroke: #038048; stroke-width: 1.0;"/><text fill="#000000" font-family="sans-serif" font-size="11" lengthAdjust="spacingAndGlyphs" textLength="97" x="247" y="138.8198">getLevel(): String</text><ellipse cx="238" cy="148.4141" fill="#84BE84" rx="3" ry="3" style="stroke: #038048; stroke-width: 1.0;"/><text fill="#000000" font-family="sans-serif" font-size="11" lengthAdjust="spacingAndGlyphs" textLength="120" x="247" y="151.6245">setLevel(String): void</text></a><!--MD5=[d69ed44e9fef62a87cc1e0466b4336ba]
class com.hack23.maven.plugin.model.Measures--><a href="Measures.html" target="_top" title="Measures.html" xlink:actuate="onRequest" xlink:href="Measures.html" xlink:show="new" xlink:title="Measures.html" xlink:type="simple"><rect fill="#FEFECE" filter="url(#f9vzvd1ei6zrf)" height="124.8281" id="com.hack23.maven.plugin.model.Measures" style="stroke: #A80036; stroke-width: 1.5;" width="182" x="38" y="273.5"/><ellipse cx="94.25" cy="289.5" fill="#ADD1B2" rx="11" ry="11" style="stroke: #A80036; stroke-width: 1.0;"/><path d="M97.2188,295.1406 Q96.6406,295.4375 96,295.5781 Q95.3594,295.7344 94.6563,295.7344 Q92.1563,295.7344 90.8281,294.0938 Q89.5156,292.4375 89.5156,289.3125 Q89.5156,286.1875 90.8281,284.5313 Q92.1563,282.875 94.6563,282.875 Q95.3594,282.875 96,283.0313 Q96.6563,283.1875 97.2188,283.4844 L97.2188,286.2031 Q96.5938,285.625 96,285.3594 Q95.4063,285.0781 94.7813,285.0781 Q93.4375,285.0781 92.75,286.1563 Q92.0625,287.2188 92.0625,289.3125 Q92.0625,291.4063 92.75,292.4844 Q93.4375,293.5469 94.7813,293.5469 Q95.4063,293.5469 96,293.2813 Q96.5938,293 97.2188,292.4219 L97.2188,295.1406 Z "/><text fill="#000000" font-family="sans-serif" font-size="12" lengthAdjust="spacingAndGlyphs" textLength="61" x="114.75" y="293.6543">Measures</text><line style="stroke: #A80036; stroke-width: 1.5;" x1="39" x2="219" y1="305.5" y2="305.5"/><line style="stroke: #A80036; stroke-width: 1.5;" x1="39" x2="219" y1="313.5" y2="313.5"/><ellipse cx="49" cy="324.5" fill="#84BE84" rx="3" ry="3" style="stroke: #038048; stroke-width: 1.0;"/><text fill="#000000" font-family="sans-serif" font-size="11" lengthAdjust="spacingAndGlyphs" textLength="133" x="58" y="327.7104">getComponent(): String</text><ellipse cx="49" cy="337.3047" fill="#84BE84" rx="3" ry="3" style="stroke: #038048; stroke-width: 1.0;"/><text fill="#000000" font-family="sans-serif" font-size="11" lengthAdjust="spacingAndGlyphs" textLength="156" x="58" y="340.5151">setComponent(String): void</text><ellipse cx="49" cy="350.1094" fill="#84BE84" rx="3" ry="3" style="stroke: #038048; stroke-width: 1.0;"/><text fill="#000000" font-family="sans-serif" font-size="11" lengthAdjust="spacingAndGlyphs" textLength="102" x="58" y="353.3198">getMetric(): String</text><ellipse cx="49" cy="362.9141" fill="#84BE84" rx="3" ry="3" style="stroke: #038048; stroke-width: 1.0;"/><text fill="#000000" font-family="sans-serif" font-size="11" lengthAdjust="spacingAndGlyphs" textLength="125" x="58" y="366.1245">setMetric(String): void</text><ellipse cx="49" cy="375.7188" fill="#84BE84" rx="3" ry="3" style="stroke: #038048; stroke-width: 1.0;"/><text fill="#000000" font-family="sans-serif" font-size="11" lengthAdjust="spacingAndGlyphs" textLength="99" x="58" y="378.9292">getValue(): String</text><ellipse cx="49" cy="388.5234" fill="#84BE84" rx="3" ry="3" style="stroke: #038048; stroke-width: 1.0;"/><text fill="#000000" font-family="sans-serif" font-size="11" lengthAdjust="spacingAndGlyphs" textLength="122" x="58" y="391.7339">setValue(String): void</text></a><!--MD5=[f9ae83a406b1ed8a229b19e349459480]
class com.hack23.maven.plugin.model.MeasuresContainer--><a href="MeasuresContainer.html" target="_top" title="MeasuresContainer.html" xlink:actuate="onRequest" xlink:href="MeasuresContainer.html" xlink:show="new" xlink:title="MeasuresContainer.html" xlink:type="simple"><rect fill="#FEFECE" filter="url(#f9vzvd1ei6zrf)" height="48" id="com.hack23.maven.plugin.model.MeasuresContainer" style="stroke: #A80036; stroke-width: 1.5;" width="154" x="38" y="84.5"/><ellipse cx="53" cy="100.5" fill="#ADD1B2" rx="11" ry="11" style="stroke: #A80036; stroke-width: 1.0;"/><path d="M55.9688,106.1406 Q55.3906,106.4375 54.75,106.5781 Q54.1094,106.7344 53.4063,106.7344 Q50.9063,106.7344 49.5781,105.0938 Q48.2656,103.4375 48.2656,100.3125 Q48.2656,97.1875 49.5781,95.5313 Q50.9063,93.875 53.4063,93.875 Q54.1094,93.875 54.75,94.0313 Q55.4063,94.1875 55.9688,94.4844 L55.9688,97.2031 Q55.3438,96.625 54.75,96.3594 Q54.1563,96.0781 53.5313,96.0781 Q52.1875,96.0781 51.5,97.1563 Q50.8125,98.2188 50.8125,100.3125 Q50.8125,102.4063 51.5,103.4844 Q52.1875,104.5469 53.5313,104.5469 Q54.1563,104.5469 54.75,104.2813 Q55.3438,104 55.9688,103.4219 L55.9688,106.1406 Z "/><text fill="#000000" font-family="sans-serif" font-size="12" lengthAdjust="spacingAndGlyphs" textLength="122" x="67" y="104.6543">MeasuresContainer</text><line style="stroke: #A80036; stroke-width: 1.5;" x1="39" x2="191" y1="116.5" y2="116.5"/><line style="stroke: #A80036; stroke-width: 1.5;" x1="39" x2="191" y1="124.5" y2="124.5"/></a><!--MD5=[1425c7766ab54a75ba7870c6b7e92274]
link com.hack23.maven.plugin.model.QualityGateValue to com.hack23.maven.plugin.model.Conditions--><path d="M337,158.15 C337,179.27 337,204.89 337,229.99 " fill="none" id="com.hack23.maven.plugin.model.QualityGateValue-&gt;com.hack23.maven.plugin.model.Conditions" style="stroke: #A80036; stroke-width: 1.0;"/><polygon fill="#A80036" points="337,235,341,226,337,230,333,226,337,235" style="stroke: #A80036; stroke-width: 1.0;"/><text fill="#000000" font-family="sans-serif" font-size="13" lengthAdjust="spacingAndGlyphs" textLength="65" x="338" y="201.0669">conditions</text><text fill="#000000" font-family="sans-serif" font-size="13" lengthAdjust="spacingAndGlyphs" textLength="7" x="329.732" y="223.7781">*</text><!--MD5=[93794ee4b284d32edbe04d249627a084]
link com.hack23.maven.plugin.model.MeasuresContainer to com.hack23.maven.plugin.model.Measures--><path d="M116.45,132.78 C118.41,164.42 122,222.29 124.84,268.05 " fill="none" id="com.hack23.maven.plugin.model.MeasuresContainer-&gt;com.hack23.maven.plugin.model.Measures" style="stroke: #A80036; stroke-width: 1.0;"/><polygon fill="#A80036" points="125.17,273.28,128.5959,264.0462,124.8554,268.2899,120.6117,264.5495,125.17,273.28" style="stroke: #A80036; stroke-width: 1.0;"/><text fill="#000000" font-family="sans-serif" font-size="13" lengthAdjust="spacingAndGlyphs" textLength="64" x="121" y="201.0669">measures</text><text fill="#000000" font-family="sans-serif" font-size="13" lengthAdjust="spacingAndGlyphs" textLength="7" x="117.3225" y="262.2453">*</text><text fill="#888888" font-family="sans-serif" font-size="10" lengthAdjust="spacingAndGlyphs" textLength="186" x="155.5" y="488.2822">UMLDoclet 2.0.8, PlantUML 1.2020.01</text><!--MD5=[d8a0634f2cedd703d644ab40bf909b24]
@startuml
    namespace com.hack23.maven.plugin.model {

        class Conditions [[Conditions.html]] {
            +getActual(): String
            +setActual(String): void
            +getOp(): String
            +setOp(String): void
            +getPeriod(): String
            +setPeriod(String): void
            +getMetric(): String
            +setMetric(String): void
            +getLevel(): String
            +setLevel(String): void
            +getError(): String
            +setError(String): void
        }

        class QualityGateValue [[QualityGateValue.html]] {
            +getIgnoredConditions(): String
            +setIgnoredConditions(String): void
            +getLevel(): String
            +setLevel(String): void
        }

        class Measures [[Measures.html]] {
            +getComponent(): String
            +setComponent(String): void
            +getMetric(): String
            +setMetric(String): void
            +getValue(): String
            +setValue(String): void
        }

        class MeasuresContainer [[MeasuresContainer.html]] {
        }

        QualityGateValue - -> "*" Conditions: conditions
        MeasuresContainer - -> "*" Measures: measures
    }

    center footer UMLDoclet 2.0.8, PlantUML 1.2020.01
@enduml

PlantUML version 1.2020.01(Sun Feb 16 18:40:32 CET 2020)
(APACHE source distribution)
Java Runtime: OpenJDK Runtime Environment
JVM: OpenJDK 64-Bit Server VM
Java Version: 11.0.6+10-post-Ubuntu-2ubuntu2
Operating System: Linux
Default Encoding: UTF-8
Language: en
Country: US
--></g></svg>