<?xml version="1.0" encoding="UTF-8" standalone="no"?><svg xmlns="http://www.w3.org/2000/svg" xmlns:xlink="http://www.w3.org/1999/xlink" contentScriptType="application/ecmascript" contentStyleType="text/css" height="260px" preserveAspectRatio="none" style="width:284px;height:260px;" version="1.1" viewBox="0 0 284 260" width="284px" zoomAndPan="magnify"><defs><filter height="300%" id="fjv4mx06y8v5b" width="300%" x="-1" y="-1"><feGaussianBlur result="blurOut" stdDeviation="2.0"/><feColorMatrix in="blurOut" result="blurOut2" type="matrix" values="0 0 0 0 0 0 0 0 0 0 0 0 0 0 0 0 0 0 .4 0"/><feOffset dx="4.0" dy="4.0" in="blurOut2" result="blurOut3"/><feBlend in="SourceGraphic" in2="blurOut3" mode="normal"/></filter></defs><g><!--cluster com.hack23.maven.plugin--><polygon fill="#FFFFFF" filter="url(#fjv4mx06y8v5b)" points="14,124,225,124,232,146.2969,235,146.2969,235,220,14,220,14,124" style="stroke: #000000; stroke-width: 1.5;"/><line style="stroke: #000000; stroke-width: 1.5;" x1="14" x2="232" y1="146.2969" y2="146.2969"/><text fill="#000000" font-family="sans-serif" font-size="14" font-weight="bold" lengthAdjust="spacingAndGlyphs" textLength="205" x="18" y="138.9951">com.hack23.maven.plugin</text><!--cluster org.apache.maven.plugin--><polygon fill="#FFFFFF" filter="url(#fjv4mx06y8v5b)" points="47,16,252,16,259,38.2969,262,38.2969,262,99,47,99,47,16" style="stroke: #000000; stroke-width: 1.5;"/><line style="stroke: #000000; stroke-width: 1.5;" x1="47" x2="259" y1="38.2969" y2="38.2969"/><text fill="#000000" font-family="sans-serif" font-size="14" font-weight="bold" lengthAdjust="spacingAndGlyphs" textLength="199" x="51" y="30.9951">org.apache.maven.plugin</text><!--class com.hack23.maven.plugin.SonarQualityGatesMojo--><a href="SonarQualityGatesMojo.html" target="_top" xlink:actuate="onRequest" xlink:show="new" xlink:title="SonarQualityGatesMojo.html" xlink:type="simple"><rect fill="#FEFECE" filter="url(#fjv4mx06y8v5b)" height="60.8047" id="com.hack23.maven.plugin.SonarQualityGatesMojo" style="stroke: #A80036; stroke-width: 1.5;" width="177" x="35.5" y="151"/><ellipse cx="50.5" cy="167" fill="#ADD1B2" rx="11" ry="11" style="stroke: #A80036; stroke-width: 1.0;"/><path d="M53.4688,172.6406 Q52.8906,172.9375 52.25,173.0781 Q51.6094,173.2344 50.9063,173.2344 Q48.4063,173.2344 47.0781,171.5938 Q45.7656,169.9375 45.7656,166.8125 Q45.7656,163.6875 47.0781,162.0313 Q48.4063,160.375 50.9063,160.375 Q51.6094,160.375 52.25,160.5313 Q52.9063,160.6875 53.4688,160.9844 L53.4688,163.7031 Q52.8438,163.125 52.25,162.8594 Q51.6563,162.5781 51.0313,162.5781 Q49.6875,162.5781 49,163.6563 Q48.3125,164.7188 48.3125,166.8125 Q48.3125,168.9063 49,169.9844 Q49.6875,171.0469 51.0313,171.0469 Q51.6563,171.0469 52.25,170.7813 Q52.8438,170.5 53.4688,169.9219 L53.4688,172.6406 Z "/><text fill="#000000" font-family="sans-serif" font-size="12" lengthAdjust="spacingAndGlyphs" textLength="145" x="64.5" y="171.1543">SonarQualityGatesMojo</text><line style="stroke: #A80036; stroke-width: 1.5;" x1="36.5" x2="211.5" y1="183" y2="183"/><line style="stroke: #A80036; stroke-width: 1.5;" x1="36.5" x2="211.5" y1="191" y2="191"/><ellipse cx="46.5" cy="202.9023" fill="#84BE84" rx="3" ry="3" style="stroke: #038048; stroke-width: 1.0;"/><text fill="#000000" font-family="sans-serif" font-size="11" lengthAdjust="spacingAndGlyphs" textLength="83" x="55.5" y="205.2104">execute(): void</text></a><!--class org.apache.maven.plugin.AbstractMojo--><rect fill="#FEFECE" filter="url(#fjv4mx06y8v5b)" height="48" id="org.apache.maven.plugin.AbstractMojo" style="stroke: #A80036; stroke-width: 1.5;" width="113" x="67.5" y="43"/><ellipse cx="82.5" cy="59" fill="#A9DCDF" rx="11" ry="11" style="stroke: #A80036; stroke-width: 1.0;"/><path d="M82.6094,54.3438 L81.4531,59.4219 L83.7813,59.4219 L82.6094,54.3438 Z M81.125,52.1094 L84.1094,52.1094 L87.4688,64.5 L85.0156,64.5 L84.25,61.4375 L80.9688,61.4375 L80.2188,64.5 L77.7813,64.5 L81.125,52.1094 Z "/><text fill="#000000" font-family="sans-serif" font-size="12" font-style="italic" lengthAdjust="spacingAndGlyphs" textLength="81" x="96.5" y="63.1543">AbstractMojo</text><line style="stroke: #A80036; stroke-width: 1.5;" x1="68.5" x2="179.5" y1="75" y2="75"/><line style="stroke: #A80036; stroke-width: 1.5;" x1="68.5" x2="179.5" y1="83" y2="83"/><!--link org.apache.maven.plugin.AbstractMojo to com.hack23.maven.plugin.SonarQualityGatesMojo--><path d="M124,111.2477 C124,124.5296 124,138.7972 124,150.9818 " fill="none" id="org.apache.maven.plugin.AbstractMojo-com.hack23.maven.plugin.SonarQualityGatesMojo" style="stroke: #A80036; stroke-width: 1.0;"/><polygon fill="none" points="117.0001,111.003,124,91.003,131.0001,111.0029,117.0001,111.003" style="stroke: #A80036; stroke-width: 1.0;"/><text fill="#888888" font-family="sans-serif" font-size="10" lengthAdjust="spacingAndGlyphs" textLength="186" x="51" y="247.2822">UMLDoclet 2.0.5, PlantUML 1.2019.08</text><!--
@startuml
    namespace com.hack23.maven.plugin {

        class SonarQualityGatesMojo [[SonarQualityGatesMojo.html]] {
            +execute(): void
        }

        org.apache.maven.plugin.AbstractMojo <|- - SonarQualityGatesMojo
    }

    namespace org.apache.maven.plugin {
        abstract class AbstractMojo {
        }
    }

    center footer UMLDoclet 2.0.5, PlantUML 1.2019.08
@enduml

PlantUML version 1.2019.08(Sat Jul 13 21:25:14 CEST 2019)
(APACHE source distribution)
Java Runtime: OpenJDK Runtime Environment
JVM: OpenJDK 64-Bit Server VM
Java Version: 11.0.5-ea+6-post-Ubuntu-1ubuntu2
Operating System: Linux
OS Version: 5.3.0-12-generic
Default Encoding: UTF-8
Language: en
Country: US
--></g></svg>