<?xml version="1.0" encoding="UTF-8" standalone="no"?><svg xmlns="http://www.w3.org/2000/svg" xmlns:xlink="http://www.w3.org/1999/xlink" contentScriptType="application/ecmascript" contentStyleType="text/css" height="320px" preserveAspectRatio="none" style="width:304px;height:320px;" version="1.1" viewBox="0 0 304 320" width="304px" zoomAndPan="magnify"><defs><filter height="300%" id="fnxav3pq1bkrq" width="300%" x="-1" y="-1"><feGaussianBlur result="blurOut" stdDeviation="2.0"/><feColorMatrix in="blurOut" result="blurOut2" type="matrix" values="0 0 0 0 0 0 0 0 0 0 0 0 0 0 0 0 0 0 .4 0"/><feOffset dx="4.0" dy="4.0" in="blurOut2" result="blurOut3"/><feBlend in="SourceGraphic" in2="blurOut3" mode="normal"/></filter></defs><g><!--MD5=[44505a59787bd85e8bfec2d231b1f5bf]
cluster com.hack23.maven.plugin--><polygon fill="#FFFFFF" filter="url(#fnxav3pq1bkrq)" points="22,147,233,147,240,169.2969,274,169.2969,274,272,22,272,22,147" style="stroke: #000000; stroke-width: 1.5;"/><line style="stroke: #000000; stroke-width: 1.5;" x1="22" x2="240" y1="169.2969" y2="169.2969"/><text fill="#000000" font-family="sans-serif" font-size="14" font-weight="bold" lengthAdjust="spacingAndGlyphs" textLength="205" x="26" y="161.9951">com.hack23.maven.plugin</text><!--MD5=[e837b0a1d087849ae0525419c602f94f]
cluster org.apache.maven.plugin--><polygon fill="#FFFFFF" filter="url(#fnxav3pq1bkrq)" points="67,24,272,24,279,46.2969,282,46.2969,282,123,67,123,67,24" style="stroke: #000000; stroke-width: 1.5;"/><line style="stroke: #000000; stroke-width: 1.5;" x1="67" x2="279" y1="46.2969" y2="46.2969"/><text fill="#000000" font-family="sans-serif" font-size="14" font-weight="bold" lengthAdjust="spacingAndGlyphs" textLength="199" x="71" y="38.9951">org.apache.maven.plugin</text><!--MD5=[c687b58ed0a144ef98b0cfb2d4248cb7]
class com.hack23.maven.plugin.SonarQualityGatesMojo--><a href="SonarQualityGatesMojo.html" target="_top" title="SonarQualityGatesMojo.html" xlink:actuate="onRequest" xlink:href="SonarQualityGatesMojo.html" xlink:show="new" xlink:title="SonarQualityGatesMojo.html" xlink:type="simple"><rect fill="#FEFECE" filter="url(#fnxav3pq1bkrq)" height="73.6094" id="com.hack23.maven.plugin.SonarQualityGatesMojo" style="stroke: #A80036; stroke-width: 1.5;" width="220" x="38" y="182"/><ellipse cx="72.35" cy="198" fill="#ADD1B2" rx="11" ry="11" style="stroke: #A80036; stroke-width: 1.0;"/><path d="M75.3188,203.6406 Q74.7406,203.9375 74.1,204.0781 Q73.4594,204.2344 72.7563,204.2344 Q70.2563,204.2344 68.9281,202.5938 Q67.6156,200.9375 67.6156,197.8125 Q67.6156,194.6875 68.9281,193.0313 Q70.2563,191.375 72.7563,191.375 Q73.4594,191.375 74.1,191.5313 Q74.7563,191.6875 75.3188,191.9844 L75.3188,194.7031 Q74.6938,194.125 74.1,193.8594 Q73.5063,193.5781 72.8813,193.5781 Q71.5375,193.5781 70.85,194.6563 Q70.1625,195.7188 70.1625,197.8125 Q70.1625,199.9063 70.85,200.9844 Q71.5375,202.0469 72.8813,202.0469 Q73.5063,202.0469 74.1,201.7813 Q74.6938,201.5 75.3188,200.9219 L75.3188,203.6406 Z "/><text fill="#000000" font-family="sans-serif" font-size="12" lengthAdjust="spacingAndGlyphs" textLength="145" x="90.65" y="202.1543">SonarQualityGatesMojo</text><line style="stroke: #A80036; stroke-width: 1.5;" x1="39" x2="257" y1="214" y2="214"/><line style="stroke: #A80036; stroke-width: 1.5;" x1="39" x2="257" y1="222" y2="222"/><ellipse cx="49" cy="233" fill="#84BE84" rx="3" ry="3" style="stroke: #038048; stroke-width: 1.0;"/><text fill="#000000" font-family="sans-serif" font-size="11" lengthAdjust="spacingAndGlyphs" textLength="83" x="58" y="236.2104">execute(): void</text><polygon fill="#FFFF44" points="49,240.8047,53,244.8047,49,248.8047,45,244.8047" style="stroke: #B38D22; stroke-width: 1.0;"/><text fill="#000000" font-family="sans-serif" font-size="11" lengthAdjust="spacingAndGlyphs" textLength="194" x="58" y="249.0151">addCredentials(HttpRequest): void</text></a><!--MD5=[f27acf489d20a513fa08819e0767f1a3]
class org.apache.maven.plugin.AbstractMojo--><rect fill="#FEFECE" filter="url(#fnxav3pq1bkrq)" height="48" id="org.apache.maven.plugin.AbstractMojo" style="stroke: #A80036; stroke-width: 1.5;" width="113" x="91.5" y="59"/><ellipse cx="106.5" cy="75" fill="#A9DCDF" rx="11" ry="11" style="stroke: #A80036; stroke-width: 1.0;"/><path d="M106.6094,70.3438 L105.4531,75.4219 L107.7813,75.4219 L106.6094,70.3438 Z M105.125,68.1094 L108.1094,68.1094 L111.4688,80.5 L109.0156,80.5 L108.25,77.4375 L104.9688,77.4375 L104.2188,80.5 L101.7813,80.5 L105.125,68.1094 Z "/><text fill="#000000" font-family="sans-serif" font-size="12" font-style="italic" lengthAdjust="spacingAndGlyphs" textLength="81" x="120.5" y="79.1543">AbstractMojo</text><line style="stroke: #A80036; stroke-width: 1.5;" x1="92.5" x2="203.5" y1="91" y2="91"/><line style="stroke: #A80036; stroke-width: 1.5;" x1="92.5" x2="203.5" y1="99" y2="99"/><!--MD5=[20652ff2b77e5ea18d522440cfde7ccb]
reverse link org.apache.maven.plugin.AbstractMojo to com.hack23.maven.plugin.SonarQualityGatesMojo--><path d="M148,127.26 C148,144.9 148,165.07 148,181.91 " fill="none" id="org.apache.maven.plugin.AbstractMojo&lt;-com.hack23.maven.plugin.SonarQualityGatesMojo" style="stroke: #A80036; stroke-width: 1.0;"/><polygon fill="none" points="141,127.04,148,107.04,155,127.04,141,127.04" style="stroke: #A80036; stroke-width: 1.0;"/><text fill="#888888" font-family="sans-serif" font-size="10" lengthAdjust="spacingAndGlyphs" textLength="186" x="65" y="307.2822">UMLDoclet 2.0.8, PlantUML 1.2020.01</text><!--MD5=[15624cad97386511a0a2edf391156fa0]
@startuml
    namespace com.hack23.maven.plugin {

        class SonarQualityGatesMojo [[SonarQualityGatesMojo.html]] {
            +execute(): void
            #addCredentials(HttpRequest): void
        }

        org.apache.maven.plugin.AbstractMojo <|- - SonarQualityGatesMojo
    }

    namespace org.apache.maven.plugin {
        abstract class AbstractMojo {
        }
    }

    center footer UMLDoclet 2.0.8, PlantUML 1.2020.01
@enduml

PlantUML version 1.2020.01(Sun Feb 16 18:40:32 CET 2020)
(APACHE source distribution)
Java Runtime: OpenJDK Runtime Environment
JVM: OpenJDK 64-Bit Server VM
Java Version: 11.0.7+10-post-Ubuntu-2ubuntu1
Operating System: Linux
Default Encoding: UTF-8
Language: en
Country: US
--></g></svg>