<?xml version="1.0" encoding="UTF-8" standalone="no"?><svg xmlns="http://www.w3.org/2000/svg" xmlns:xlink="http://www.w3.org/1999/xlink" contentScriptType="application/ecmascript" contentStyleType="text/css" height="210px" preserveAspectRatio="none" style="width:237px;height:210px;" version="1.1" viewBox="0 0 237 210" width="237px" zoomAndPan="magnify"><defs><filter height="300%" id="fv9xwip04gb0t" width="300%" x="-1" y="-1"><feGaussianBlur result="blurOut" stdDeviation="2.0"/><feColorMatrix in="blurOut" result="blurOut2" type="matrix" values="0 0 0 0 0 0 0 0 0 0 0 0 0 0 0 0 0 0 .4 0"/><feOffset dx="4.0" dy="4.0" in="blurOut2" result="blurOut3"/><feBlend in="SourceGraphic" in2="blurOut3" mode="normal"/></filter></defs><g><!--MD5=[c687b58ed0a144ef98b0cfb2d4248cb7]
class com.hack23.maven.plugin.SonarQualityGatesMojo--><a href="SonarQualityGatesMojo.html" target="_top" title="SonarQualityGatesMojo.html" xlink:actuate="onRequest" xlink:href="SonarQualityGatesMojo.html" xlink:show="new" xlink:title="SonarQualityGatesMojo.html" xlink:type="simple"><rect fill="#FEFECE" filter="url(#fv9xwip04gb0t)" height="71.5469" id="com.hack23.maven.plugin.SonarQualityGatesMojo" style="stroke: #A80036; stroke-width: 1.5;" width="220" x="6" y="106"/><ellipse cx="33.6" cy="124.9688" fill="#ADD1B2" rx="11" ry="11" style="stroke: #A80036; stroke-width: 1.0;"/><path d="M36.5688,130.6094 Q35.9906,130.9063 35.35,131.0469 Q34.7094,131.2031 34.0063,131.2031 Q31.5063,131.2031 30.1781,129.5625 Q28.8656,127.9063 28.8656,124.7813 Q28.8656,121.6563 30.1781,120 Q31.5063,118.3438 34.0063,118.3438 Q34.7094,118.3438 35.35,118.5 Q36.0063,118.6563 36.5688,118.9531 L36.5688,121.6719 Q35.9438,121.0938 35.35,120.8281 Q34.7563,120.5469 34.1313,120.5469 Q32.7875,120.5469 32.1,121.625 Q31.4125,122.6875 31.4125,124.7813 Q31.4125,126.875 32.1,127.9531 Q32.7875,129.0156 34.1313,129.0156 Q34.7563,129.0156 35.35,128.75 Q35.9438,128.4688 36.5688,127.8906 L36.5688,130.6094 Z "/><text fill="#000000" font-family="sans-serif" font-size="14" lengthAdjust="spacingAndGlyphs" textLength="160" x="50.4" y="123.9951">SonarQualityGatesMojo</text><text fill="#000000" font-family="sans-serif" font-size="10" lengthAdjust="spacingAndGlyphs" textLength="126" x="67.4" y="136.5791">com.hack23.maven.plugin</text><line style="stroke: #A80036; stroke-width: 1.5;" x1="7" x2="225" y1="143.9375" y2="143.9375"/><ellipse cx="17" cy="154.9375" fill="#84BE84" rx="3" ry="3" style="stroke: #038048; stroke-width: 1.0;"/><text fill="#000000" font-family="sans-serif" font-size="11" lengthAdjust="spacingAndGlyphs" textLength="83" x="26" y="158.1479">execute(): void</text><polygon fill="#FFFF44" points="17,162.7422,21,166.7422,17,170.7422,13,166.7422" style="stroke: #B38D22; stroke-width: 1.0;"/><text fill="#000000" font-family="sans-serif" font-size="11" lengthAdjust="spacingAndGlyphs" textLength="194" x="26" y="170.9526">addCredentials(HttpRequest): void</text></a><!--MD5=[f27acf489d20a513fa08819e0767f1a3]
class org.apache.maven.plugin.AbstractMojo--><rect fill="#FEFECE" filter="url(#fv9xwip04gb0t)" height="37.9375" id="org.apache.maven.plugin.AbstractMojo" style="stroke: #A80036; stroke-width: 1.5;" width="157" x="37.5" y="8"/><ellipse cx="52.5" cy="26.9688" fill="#A9DCDF" rx="11" ry="11" style="stroke: #A80036; stroke-width: 1.0;"/><path d="M52.6094,22.3125 L51.4531,27.3906 L53.7813,27.3906 L52.6094,22.3125 Z M51.125,20.0781 L54.1094,20.0781 L57.4688,32.4688 L55.0156,32.4688 L54.25,29.4063 L50.9688,29.4063 L50.2188,32.4688 L47.7813,32.4688 L51.125,20.0781 Z "/><text fill="#000000" font-family="sans-serif" font-size="14" font-style="italic" lengthAdjust="spacingAndGlyphs" textLength="90" x="84" y="25.9951">AbstractMojo</text><text fill="#000000" font-family="sans-serif" font-size="10" font-style="italic" lengthAdjust="spacingAndGlyphs" textLength="125" x="66.5" y="38.5791">org.apache.maven.plugin</text><!--MD5=[20652ff2b77e5ea18d522440cfde7ccb]
reverse link org.apache.maven.plugin.AbstractMojo to com.hack23.maven.plugin.SonarQualityGatesMojo--><path d="M116,66.3 C116,79 116,93.08 116,105.56 " fill="none" id="org.apache.maven.plugin.AbstractMojo&lt;-com.hack23.maven.plugin.SonarQualityGatesMojo" style="stroke: #A80036; stroke-width: 1.0;"/><polygon fill="none" points="109,66.16,116,46.16,123,66.16,109,66.16" style="stroke: #A80036; stroke-width: 1.0;"/><text fill="#888888" font-family="sans-serif" font-size="10" lengthAdjust="spacingAndGlyphs" textLength="186" x="29" y="197.2822">UMLDoclet 2.0.8, PlantUML 1.2020.01</text><!--MD5=[46d54c5a98571a43f7d7cdb1c31cb612]
@startuml
    set namespaceSeparator none
    hide empty fields
    hide empty methods

    class "<size:14>SonarQualityGatesMojo\n<size:10>com.hack23.maven.plugin" as com.hack23.maven.plugin.SonarQualityGatesMojo [[SonarQualityGatesMojo.html]] {
        +execute(): void
        #addCredentials(HttpRequest): void
    }

    abstract class "<size:14>AbstractMojo\n<size:10>org.apache.maven.plugin" as org.apache.maven.plugin.AbstractMojo

    org.apache.maven.plugin.AbstractMojo <|- - com.hack23.maven.plugin.SonarQualityGatesMojo

    center footer UMLDoclet 2.0.8, PlantUML 1.2020.01
@enduml

PlantUML version 1.2020.01(Sun Feb 16 18:40:32 CET 2020)
(APACHE source distribution)
Java Runtime: OpenJDK Runtime Environment
JVM: OpenJDK 64-Bit Server VM
Java Version: 11.0.6+10-post-Ubuntu-2ubuntu2
Operating System: Linux
Default Encoding: UTF-8
Language: en
Country: US
--></g></svg>